<?xml version="1.0" encoding="UTF-8" standalone="no"?>
<!-- Created with Inkscape (http://www.inkscape.org/) -->

<svg
   width="211.78304mm"
   height="137.68356mm"
   viewBox="0 0 211.78303 137.68356"
   version="1.1"
   id="svg19921"
   inkscape:version="1.2.2 (b0a8486541, 2022-12-01)"
   sodipodi:docname="favicon.svg"
   inkscape:export-filename="icon.png"
   inkscape:export-xdpi="200"
   inkscape:export-ydpi="200"
   xmlns:inkscape="http://www.inkscape.org/namespaces/inkscape"
   xmlns:sodipodi="http://sodipodi.sourceforge.net/DTD/sodipodi-0.dtd"
   xmlns:xlink="http://www.w3.org/1999/xlink"
   xmlns="http://www.w3.org/2000/svg"
   xmlns:svg="http://www.w3.org/2000/svg">
  <sodipodi:namedview
     id="namedview19923"
     pagecolor="#ffffff"
     bordercolor="#000000"
     borderopacity="0.25"
     inkscape:showpageshadow="2"
     inkscape:pageopacity="0.0"
     inkscape:pagecheckerboard="0"
     inkscape:deskcolor="#d1d1d1"
     inkscape:document-units="mm"
     showgrid="false"
     inkscape:zoom="0.49260384"
     inkscape:cx="808.96649"
     inkscape:cy="264.91876"
     inkscape:window-width="1864"
     inkscape:window-height="1014"
     inkscape:window-x="0"
     inkscape:window-y="0"
     inkscape:window-maximized="1"
     inkscape:current-layer="layer1" />
  <defs
     id="defs19918">
    <linearGradient
       inkscape:collect="always"
       xlink:href="#linearGradient987"
       id="linearGradient14287"
       gradientUnits="userSpaceOnUse"
       x1="464.95535"
       y1="524.11066"
       x2="389.84583"
       y2="370.11331"
       gradientTransform="matrix(0.26458333,0,-0.12904591,0.26458333,42.334328,-19.002597)" />
    <linearGradient
       inkscape:collect="always"
       id="linearGradient987">
      <stop
         style="stop-color:#4dbf5d;stop-opacity:1;"
         offset="0"
         id="stop983" />
      <stop
         style="stop-color:#3db260;stop-opacity:1;"
         offset="0.5"
         id="stop3757" />
      <stop
         style="stop-color:#299b79;stop-opacity:1;"
         offset="1"
         id="stop985" />
    </linearGradient>
    <filter
       inkscape:collect="always"
       style="color-interpolation-filters:sRGB"
       id="filter19826"
       x="-0.056114538"
       y="-0.054972407"
       width="1.1122291"
       height="1.1099448">
      <feGaussianBlur
         inkscape:collect="always"
         stdDeviation="4.5208385"
         id="feGaussianBlur19828" />
    </filter>
    <filter
       inkscape:collect="always"
       style="color-interpolation-filters:sRGB"
       id="filter19834"
       x="-0.054556352"
       y="-0.055463283"
       width="1.1091127"
       height="1.1109266">
      <feGaussianBlur
         inkscape:collect="always"
         stdDeviation="4.6066367"
         id="feGaussianBlur19836" />
    </filter>
    <linearGradient
       inkscape:collect="always"
       xlink:href="#linearGradient987"
       id="linearGradient16807"
       x1="451.04941"
       y1="247.83452"
       x2="844.30334"
       y2="247.83452"
       gradientUnits="userSpaceOnUse"
       gradientTransform="matrix(0.26458333,0,0,0.26458333,-75.885731,57.929554)" />
    <linearGradient
       inkscape:collect="always"
       xlink:href="#linearGradient8825"
       id="linearGradient16783"
       x1="-23.546024"
       y1="179.3457"
       x2="397.11047"
       y2="179.3457"
       gradientUnits="userSpaceOnUse"
       gradientTransform="matrix(0.26458333,0,0,0.26458333,-37.754988,57.165522)" />
    <linearGradient
       inkscape:collect="always"
       id="linearGradient8825">
      <stop
         style="stop-color:#3878eb;stop-opacity:1;"
         offset="0"
         id="stop8819" />
      <stop
         style="stop-color:#2d5eb7;stop-opacity:1;"
         offset="0.5"
         id="stop8821" />
      <stop
         style="stop-color:#2758ad;stop-opacity:1;"
         offset="1"
         id="stop8823" />
    </linearGradient>
    <linearGradient
       inkscape:collect="always"
       xlink:href="#linearGradient8825"
       id="linearGradient16819"
       gradientUnits="userSpaceOnUse"
       gradientTransform="matrix(0.26458333,0,-0.12904591,-0.26458333,-54.528166,238.83578)"
       x1="464.95535"
       y1="524.11066"
       x2="389.84583"
       y2="370.11331" />
  </defs>
  <g
     inkscape:label="Camada 1"
     inkscape:groupmode="layer"
     id="layer1"
     transform="translate(43.984872,-45.096837)">
    <path
       id="path14233"
       style="color:#000000;fill:url(#linearGradient14287);fill-opacity:1;stroke:none;stroke-width:5.89677;stroke-linecap:round;stroke-linejoin:round;-inkscape-stroke:none;paint-order:fill markers stroke"
       d="m 97.824067,125.83269 a 2.315778,3.7538011 51.852503 0 1 -0.833014,-0.15865 3.7538011,2.315778 38.147497 0 1 -3.408071,-2.79879 L 82.475138,99.960365 c -0.01931,-0.03267 -0.03686,-0.06565 -0.05323,-0.09922 L 79.75594,94.394814 c -0.261964,-0.537122 -0.04001,-0.969449 0.497126,-0.969449 h 3.960997 c 0.537131,0 1.180333,0.432327 1.442297,0.969449 l 1.084686,2.223638 a 3.7538011,2.315778 38.147497 0 1 0.130201,0.245462 L 97.89487,119.60568 108.9185,96.863915 a 2.315778,3.7538011 51.852503 0 1 0.0517,-0.08372 l 1.16324,-2.385383 c 0.26196,-0.537122 0.90514,-0.969449 1.44227,-0.969449 h 3.961 c 0.53713,0 0.75911,0.432327 0.49715,0.969449 l -2.66599,5.466331 c -0.0164,0.03336 -0.0347,0.06675 -0.0537,0.09922 l -11.10734,22.914887 a 2.315778,3.7538011 51.852503 0 1 -3.408074,2.79879 3.7538011,2.315778 38.147497 0 1 -0.833543,0.15865 3.7538011,2.315778 38.147497 0 1 -0.07027,-0.009 2.315778,3.7538011 51.852503 0 1 -0.0708,0.009 z" />
    <path
       id="path19814"
       style="fill:none;fill-opacity:0.503656;stroke:#d9d9d9;stroke-width:22.9358;stroke-linecap:round;stroke-linejoin:round;stroke-dasharray:none;stroke-opacity:1;paint-order:fill markers stroke;filter:url(#filter19826);stop-color:#000000"
       d="m 336.86522,324.73889 c -27.84145,-8e-5 -50.4116,21.82417 -50.41211,48.74609 0.04,7.78774 2.00902,15.45287 5.74219,22.35352 h -77.10742 c -20.47053,0 -36.95117,16.4787 -36.95117,36.94922 v 260.98392 c 0,20.47052 16.48064,36.95117 36.95117,36.95117 h 244.68554 c 20.47053,0 36.94922,-16.48065 36.94922,-36.95117 V 619.34 c 8.01549,4.94407 17.12984,7.5705 26.41992,7.61328 29.11327,-9e-5 52.71433,-24.84373 52.71485,-55.49024 5e-4,-30.64726 -23.60086,-55.49209 -52.71485,-55.49218 -9.29008,0.0428 -18.40443,2.66921 -26.41992,7.61328 v -90.79642 c 0,-20.47052 -16.47869,-36.94922 -36.94922,-36.94922 h -78.24023 c 3.73385,-6.90049 5.70354,-14.56562 5.74414,-22.35352 -5.1e-4,-26.92192 -22.57066,-48.74617 -50.41211,-48.74609 z"
       sodipodi:nodetypes="cccssssssccsccssccc"
       transform="matrix(0.26458333,0,0,0.26458333,-85.082246,-34.232794)" />
    <path
       id="path19830"
       style="fill:none;fill-opacity:0.503656;stroke:#d9d9d9;stroke-width:22.9358;stroke-linecap:round;stroke-linejoin:round;stroke-dasharray:none;stroke-opacity:1;paint-order:fill markers stroke;filter:url(#filter19834);stop-color:#000000"
       d="m 557.34212,391.58011 c -20.47048,-8e-5 -36.95127,16.48069 -36.95127,36.95117 v 69.83693 c 9.06476,-7.44891 35.73456,-4.26871 49.17034,5.28198 18.93002,13.4562 29.79569,32.33699 29.79621,62.98349 5.1e-4,30.64726 -11.40189,51.068 -31.06091,64.7008 -13.10663,9.08896 -38.59312,11.7224 -47.65788,4.27348 l -0.24776,53.90528 c -0.0941,20.47026 16.48079,36.9511 36.95127,36.95117 l 95.93143,3.4e-4 c -2.38615,5.90744 -3.63325,12.17472 -3.68164,18.50196 -10e-4,29.11475 24.84413,52.7173 55.49219,52.7168 30.6473,-5.3e-4 55.49126,-23.60277 55.49023,-52.71679 -0.005,-6.31931 -1.20545,-12.58634 -3.54492,-18.50196 h 64.59613 c 20.47049,0 36.95117,-16.48069 36.95117,-36.95118 v -71.73437 c 6.88809,3.32361 14.37589,5.04499 21.95313,5.04687 29.11399,-1e-4 52.71535,-24.84493 52.71484,-55.49219 -5.2e-4,-30.6465 -23.60158,-55.49013 -52.71484,-55.49023 -7.5771,10e-4 -15.06489,1.72199 -21.95313,5.04492 v -88.35696 c 0,-20.47048 -16.48068,-36.95117 -36.95117,-36.95117 h -72.69336 -98.93359 z"
       sodipodi:nodetypes="sscasacssccsccssccsccssccs"
       transform="matrix(0.26458333,0,0,0.26458333,-85.082246,-34.232794)" />
    <path
       id="rect15077"
       style="fill:none;fill-opacity:0.503656;stroke:url(#linearGradient16807);stroke-width:6.06843;stroke-linecap:round;stroke-linejoin:round;stroke-dasharray:none;stroke-opacity:1;paint-order:fill markers stroke;stop-color:#000000"
       d="m 58.522738,67.000323 c -5.416148,-2.1e-5 -9.77669,4.360516 -9.77669,9.776663 v 18.477688 c 2.398384,-1.970857 9.454768,-1.12943 13.009652,1.397524 5.008568,3.560282 7.883443,8.555832 7.88358,16.664382 1.35e-4,8.10875 -3.01675,13.51174 -8.218199,17.11875 -3.467796,2.40479 -10.211096,3.10155 -12.60948,1.13069 l -0.06555,14.26244 c -0.0249,5.41609 4.360542,9.77665 9.77669,9.77667 l 25.381857,9e-5 c -0.631336,1.56301 -0.961298,3.22122 -0.974101,4.89531 -2.64e-4,7.70327 6.573343,13.94812 14.682309,13.94798 8.108764,-1.4e-4 14.682064,-6.2449 14.681784,-13.94798 -0.001,-1.67199 -0.31894,-3.33014 -0.93792,-4.89531 h 17.09105 c 5.41616,0 9.77667,-4.36052 9.77667,-9.77667 v -18.97972 c 1.82247,0.87938 3.80362,1.33482 5.80843,1.33532 7.70308,-2e-5 13.9476,-6.57355 13.94747,-14.68231 -1.4e-4,-8.10855 -6.24459,-14.68176 -13.94747,-14.681787 -2.00477,2.65e-4 -3.98592,0.45561 -5.80843,1.334807 V 76.777076 c 0,-5.416147 -4.36051,-9.776663 -9.77667,-9.776663 H 109.21427 83.038095 Z"
       sodipodi:nodetypes="sscasacssccsccssccsccssccs" />
    <path
       id="rect16747"
       style="fill:none;fill-opacity:0.503656;stroke:url(#linearGradient16783);stroke-width:6.06843;stroke-linecap:round;stroke-linejoin:round;stroke-dasharray:none;stroke-opacity:1;paint-order:fill markers stroke;stop-color:#000000"
       d="m 1.046261,48.131052 c -7.3663835,-2.1e-5 -13.338069,5.774312 -13.338204,12.897403 0.01058,2.060506 0.531553,4.088572 1.519288,5.914369 h -20.401338 c -5.416161,0 -9.776664,4.359989 -9.776664,9.776147 v 69.051999 c 0,5.41615 4.360503,9.77666 9.776664,9.77666 h 64.739715 c 5.416161,0 9.776148,-4.36051 9.776148,-9.77666 v -19.69338 c 2.120765,1.30812 4.53227,2.00303 6.99027,2.01435 7.702886,-2e-5 13.947333,-6.57324 13.94747,-14.68179 1.33e-4,-8.10875 -6.244394,-14.682283 -13.94747,-14.682307 -2.458,0.01133 -4.869505,0.706229 -6.99027,2.014347 V 76.718971 c 0,-5.416158 -4.359987,-9.776147 -9.776148,-9.776147 H 12.864661 c 0.987915,-1.825755 1.509062,-3.853821 1.519804,-5.914369 C 14.38433,53.905364 8.4126446,48.131031 1.046261,48.131052 Z"
       sodipodi:nodetypes="cccssssssccsccssccc" />
    <path
       id="path16817"
       style="color:#000000;fill:url(#linearGradient16819);fill-opacity:1;stroke-width:5.89677;stroke-linecap:round;stroke-linejoin:round;-inkscape-stroke:none;paint-order:fill markers stroke"
       d="M 0.96157319,94.000509 A 3.7538011,2.315778 38.147497 0 0 0.12855903,94.159156 2.315778,3.7538011 51.852503 0 0 -3.2795124,96.95795 l -11.1078436,22.91488 c -0.01931,0.0327 -0.03686,0.0657 -0.05323,0.0992 l -2.665968,5.46633 c -0.261964,0.53713 -0.04001,0.96945 0.497126,0.96945 h 3.960997 c 0.537131,0 1.180333,-0.43232 1.442297,-0.96945 l 1.084686,-2.22364 a 2.315778,3.7538011 51.852503 0 0 0.1302014,-0.24546 L 1.0323757,100.22752 12.056002,122.96928 a 3.7538011,2.315778 38.147497 0 0 0.05167,0.0837 l 1.163241,2.38538 c 0.261964,0.53713 0.905139,0.96945 1.44227,0.96945 h 3.960998 c 0.53713,0 0.759116,-0.43232 0.497152,-0.96945 l -2.665995,-5.46633 c -0.0164,-0.0334 -0.03466,-0.0667 -0.05374,-0.0992 L 5.3442638,96.95795 A 3.7538011,2.315778 38.147497 0 0 1.9361923,94.159156 2.315778,3.7538011 51.852503 0 0 1.102649,94.000509 a 2.315778,3.7538011 51.852503 0 0 -0.070273,0.0088 3.7538011,2.315778 38.147497 0 0 -0.0708028,-0.0088 z" />
  </g>
</svg>
